# xmcd CD database file
#
# Track frame offsets:
#	150
#	22257
#	46499
#	65937
#	76800
#	105772
#	125683
#	152515
#	185432
#	238477
#	262098
#	285775
#	313166
#	336458
#
# Disc length: 4702 seconds
#
# Revision: 0
# Processed by: cddbd v1.5.2PL0 Copyright (c) Steve Scherf et al.
# Submitted via: CDex 1.70beta2
#
DISCID=cd125c0e
DTITLE=Various Artist - Jugend Jazz Orchstra BW
DYEAR=2005
DGENRE=Jazz
TTITLE0=It Don't Mean A Thing
TTITLE1=Sunday Shermon
TTITLE2=Passacaglia
TTITLE3=Oragen Collored Sky
TTITLE4=Commerncar De Novo
TTITLE5=God Bless The Child
TTITLE6=The Chicken
TTITLE7=Sola Naci
TTITLE8=Manteca
TTITLE9=Cool Affaire
TTITLE10=Fever
TTITLE11=Imagination
TTITLE12=Naima
TTITLE13=I Wich You Love
EXTD=YEAR: 2005
EXTT0=
EXTT1=
EXTT2=
EXTT3=
EXTT4=
EXTT5=
EXTT6=
EXTT7=
EXTT8=
EXTT9=
EXTT10=
EXTT11=
EXTT12=
EXTT13=
PLAYORDER=
